<svg width="136" height="74" viewBox="0 0 136 74" fill="none" xmlns="http://www.w3.org/2000/svg">
<path d="M96.9 37.0608V7.89333L124.5 0L136 11.3467V73.0133H96.9H0V37.0608H16.15H96.9Z" fill="url(#paint0_linear_6_56)"/>
<path d="M101 10.507L122.7 4L132 13.7606V37H101V10.507Z" fill="white"/>
<path d="M21.3398 23V23.9375C21.3398 25.2266 21.1719 26.3828 20.8359 27.4062C20.5 28.4297 20.0195 29.3008 19.3945 30.0195C18.7773 30.7383 18.0352 31.2891 17.168 31.6719C16.3008 32.0469 15.3398 32.2344 14.2852 32.2344C13.2383 32.2344 12.2812 32.0469 11.4141 31.6719C10.5547 31.2891 9.80859 30.7383 9.17578 30.0195C8.54297 29.3008 8.05078 28.4297 7.69922 27.4062C7.35547 26.3828 7.18359 25.2266 7.18359 23.9375V23C7.18359 21.7109 7.35547 20.5586 7.69922 19.543C8.04297 18.5195 8.52734 17.6484 9.15234 16.9297C9.78516 16.2031 10.5312 15.6523 11.3906 15.2773C12.2578 14.8945 13.2148 14.7031 14.2617 14.7031C15.3164 14.7031 16.2773 14.8945 17.1445 15.2773C18.0117 15.6523 18.7578 16.2031 19.3828 16.9297C20.0078 17.6484 20.4883 18.5195 20.8242 19.543C21.168 20.5586 21.3398 21.7109 21.3398 23ZM18.3984 23.9375V22.9766C18.3984 22.0234 18.3047 21.1836 18.1172 20.457C17.9375 19.7227 17.668 19.1094 17.3086 18.6172C16.957 18.1172 16.5234 17.7422 16.0078 17.4922C15.4922 17.2344 14.9102 17.1055 14.2617 17.1055C13.6133 17.1055 13.0352 17.2344 12.5273 17.4922C12.0195 17.7422 11.5859 18.1172 11.2266 18.6172C10.875 19.1094 10.6055 19.7227 10.418 20.457C10.2305 21.1836 10.1367 22.0234 10.1367 22.9766V23.9375C10.1367 24.8906 10.2305 25.7344 10.418 26.4688C10.6055 27.2031 10.8789 27.8242 11.2383 28.332C11.6055 28.832 12.043 29.2109 12.5508 29.4688C13.0586 29.7188 13.6367 29.8438 14.2852 29.8438C14.9414 29.8438 15.5234 29.7188 16.0312 29.4688C16.5391 29.2109 16.9688 28.832 17.3203 28.332C17.6719 27.8242 17.9375 27.2031 18.1172 26.4688C18.3047 25.7344 18.3984 24.8906 18.3984 23.9375ZM31.9495 14.9375V32H29.0198V14.9375H31.9495ZM42.2152 14.9375L35.2777 24.6641H31.1175L30.7191 22.1094H33.6488L38.6175 14.9375H42.2152ZM39.2152 32L33.6956 24.2188L35.5941 21.957L42.7425 32H39.2152ZM60.3834 22.0625V24.3945H51.3248V22.0625H60.3834ZM52.0514 14.9375V32H49.11V14.9375H52.0514ZM62.6452 14.9375V32H59.7155V14.9375H62.6452ZM77.6845 17.2109L72.5869 32H69.5048L75.9267 14.9375H77.8955L77.6845 17.2109ZM81.9502 32L76.8408 17.2109L76.6181 14.9375H78.5986L85.0439 32H81.9502ZM81.7041 25.6719V28.0039H72.4228V25.6719H81.7041Z" fill="#272727"/>
<path d="M23.2148 61.6445L22.9922 68.1133H20.2852V64H18.7617V61.6445H23.2148ZM7.66406 64V46.9375H10.6172V61.668H18.1758V46.9375H21.1289V64H7.66406ZM41.7286 61.668V64H32.67V61.668H41.7286ZM33.502 46.9375V64H30.5606V46.9375H33.502ZM40.545 54.0625V56.3594H32.67V54.0625H40.545ZM41.67 46.9375V49.2812H32.67V46.9375H41.67ZM60.3244 54.0625V56.3945H51.2658V54.0625H60.3244ZM51.9923 46.9375V64H49.0509V46.9375H51.9923ZM62.5861 46.9375V64H59.6564V46.9375H62.5861ZM77.678 46.9375V64H74.76V46.9375H77.678ZM83.0334 46.9375V49.2812H69.4514V46.9375H83.0334ZM96.6839 57.6367H92.2425V55.3047H96.6839C97.4573 55.3047 98.0823 55.1797 98.5589 54.9297C99.0355 54.6797 99.3831 54.3359 99.6019 53.8984C99.8284 53.4531 99.9417 52.9453 99.9417 52.375C99.9417 51.8359 99.8284 51.332 99.6019 50.8633C99.3831 50.3867 99.0355 50.0039 98.5589 49.7148C98.0823 49.4258 97.4573 49.2812 96.6839 49.2812H93.1448V64H90.2034V46.9375H96.6839C98.0042 46.9375 99.1253 47.1719 100.047 47.6406C100.977 48.1016 101.684 48.7422 102.168 49.5625C102.653 50.375 102.895 51.3047 102.895 52.3516C102.895 53.4531 102.653 54.3984 102.168 55.1875C101.684 55.9766 100.977 56.582 100.047 57.0039C99.1253 57.4258 98.0042 57.6367 96.6839 57.6367Z" fill="white"/>
<path d="M115 4H117V37H115V4Z" fill="url(#paint1_linear_6_56)"/>
<path d="M101 24V22L132 22V24L101 24Z" fill="url(#paint2_linear_6_56)"/>
<defs>
<linearGradient id="paint0_linear_6_56" x1="8.80935e-07" y1="59" x2="136" y2="59" gradientUnits="userSpaceOnUse">
<stop stop-color="#FF6B00"/>
<stop offset="1" stop-color="#FFC700"/>
</linearGradient>
<linearGradient id="paint1_linear_6_56" x1="116" y1="4" x2="116" y2="37" gradientUnits="userSpaceOnUse">
<stop stop-color="#FFB801"/>
<stop offset="1" stop-color="#FFC700"/>
</linearGradient>
<linearGradient id="paint2_linear_6_56" x1="101" y1="23" x2="132" y2="23" gradientUnits="userSpaceOnUse">
<stop stop-color="#FFAE01"/>
<stop offset="1" stop-color="#FFC700"/>
</linearGradient>
</defs>
</svg>
